<svg width="6160" height="1360" viewBox="0 0 6160 1360" fill="none" xmlns="http://www.w3.org/2000/svg">
<g clip-path="url(#clip0_3395_8)">
<g filter="url(#filter0_d_3395_8)">
<path d="M600.157 520.169V838.606H332V252L600.157 520.169Z" fill="url(#paint0_linear_3395_8)"/>
<path d="M600.381 838.606H332L600.381 1107L868.538 838.606H600.381Z" fill="url(#paint1_linear_3395_8)"/>
<path d="M600.381 838.606H332L600.381 1107V838.606Z" fill="url(#paint2_linear_3395_8)"/>
</g>
<path d="M1459.05 311V940H1313.7V311H1459.05ZM2011.48 695.2C2011.48 708.8 2010.63 722.967 2008.93 737.7H1679.98C1682.25 767.167 1691.6 789.833 1708.03 805.7C1725.03 821 1745.72 828.65 1770.08 828.65C1806.35 828.65 1831.57 813.35 1845.73 782.75H2000.43C1992.5 813.917 1978.05 841.967 1957.08 866.9C1936.68 891.833 1910.9 911.383 1879.73 925.55C1848.57 939.717 1813.72 946.8 1775.18 946.8C1728.72 946.8 1687.35 936.883 1651.08 917.05C1614.82 897.217 1586.48 868.883 1566.08 832.05C1545.68 795.217 1535.48 752.15 1535.48 702.85C1535.48 653.55 1545.4 610.483 1565.23 573.65C1585.63 536.817 1613.97 508.483 1650.23 488.65C1686.5 468.817 1728.15 458.9 1775.18 458.9C1821.08 458.9 1861.88 468.533 1897.58 487.8C1933.28 507.067 1961.05 534.55 1980.88 570.25C2001.28 605.95 2011.48 647.6 2011.48 695.2ZM1862.73 656.95C1862.73 632.017 1854.23 612.183 1837.23 597.45C1820.23 582.717 1798.98 575.35 1773.48 575.35C1749.12 575.35 1728.43 582.433 1711.43 596.6C1695 610.767 1684.8 630.883 1680.83 656.95H1862.73ZM2352.51 816.75V940H2278.56C2225.86 940 2184.78 927.25 2155.31 901.75C2125.85 875.683 2111.11 833.467 2111.11 775.1V586.4H2053.31V465.7H2111.11V350.1H2256.46V465.7H2351.66V586.4H2256.46V776.8C2256.46 790.967 2259.86 801.167 2266.66 807.4C2273.46 813.633 2284.8 816.75 2300.66 816.75H2352.51ZM2697.83 816.75V940H2623.88C2571.18 940 2530.09 927.25 2500.63 901.75C2471.16 875.683 2456.43 833.467 2456.43 775.1V586.4H2398.63V465.7H2456.43V350.1H2601.78V465.7H2696.98V586.4H2601.78V776.8C2601.78 790.967 2605.18 801.167 2611.98 807.4C2618.78 813.633 2630.11 816.75 2645.98 816.75H2697.83ZM3225.89 695.2C3225.89 708.8 3225.04 722.967 3223.34 737.7H2894.39C2896.65 767.167 2906 789.833 2922.44 805.7C2939.44 821 2960.12 828.65 2984.49 828.65C3020.75 828.65 3045.97 813.35 3060.14 782.75H3214.84C3206.9 813.917 3192.45 841.967 3171.49 866.9C3151.09 891.833 3125.3 911.383 3094.14 925.55C3062.97 939.717 3028.12 946.8 2989.59 946.8C2943.12 946.8 2901.75 936.883 2865.49 917.05C2829.22 897.217 2800.89 868.883 2780.49 832.05C2760.09 795.217 2749.89 752.15 2749.89 702.85C2749.89 653.55 2759.8 610.483 2779.64 573.65C2800.04 536.817 2828.37 508.483 2864.64 488.65C2900.9 468.817 2942.55 458.9 2989.59 458.9C3035.49 458.9 3076.29 468.533 3111.99 487.8C3147.69 507.067 3175.45 534.55 3195.29 570.25C3215.69 605.95 3225.89 647.6 3225.89 695.2ZM3077.14 656.95C3077.14 632.017 3068.64 612.183 3051.64 597.45C3034.64 582.717 3013.39 575.35 2987.89 575.35C2963.52 575.35 2942.84 582.433 2925.84 596.6C2909.4 610.767 2899.2 630.883 2895.24 656.95H3077.14ZM3447.92 544.75C3464.92 518.683 3486.17 498.283 3511.67 483.55C3537.17 468.25 3565.5 460.6 3596.67 460.6V614.45H3556.72C3520.45 614.45 3493.25 622.383 3475.12 638.25C3456.98 653.55 3447.92 680.75 3447.92 719.85V940H3302.57V465.7H3447.92V544.75ZM3637.24 702C3637.24 653.267 3646.31 610.483 3664.44 573.65C3683.14 536.817 3708.36 508.483 3740.09 488.65C3771.82 468.817 3807.24 458.9 3846.34 458.9C3877.51 458.9 3905.84 465.417 3931.34 478.45C3957.41 491.483 3977.81 509.05 3992.54 531.15V311H4137.89V940H3992.54V872C3978.94 894.667 3959.39 912.8 3933.89 926.4C3908.96 940 3879.77 946.8 3846.34 946.8C3807.24 946.8 3771.82 936.883 3740.09 917.05C3708.36 896.65 3683.14 868.033 3664.44 831.2C3646.31 793.8 3637.24 750.733 3637.24 702ZM3992.54 702.85C3992.54 666.583 3982.34 637.967 3961.94 617C3942.11 596.033 3917.74 585.55 3888.84 585.55C3859.94 585.55 3835.29 596.033 3814.89 617C3795.06 637.4 3785.14 665.733 3785.14 702C3785.14 738.267 3795.06 767.167 3814.89 788.7C3835.29 809.667 3859.94 820.15 3888.84 820.15C3917.74 820.15 3942.11 809.667 3961.94 788.7C3982.34 767.733 3992.54 739.117 3992.54 702.85ZM4388.4 544.75C4405.4 518.683 4426.65 498.283 4452.15 483.55C4477.65 468.25 4505.98 460.6 4537.15 460.6V614.45H4497.2C4460.93 614.45 4433.73 622.383 4415.6 638.25C4397.46 653.55 4388.4 680.75 4388.4 719.85V940H4243.05V465.7H4388.4V544.75ZM4822.52 946.8C4776.05 946.8 4734.12 936.883 4696.72 917.05C4659.89 897.217 4630.7 868.883 4609.17 832.05C4588.2 795.217 4577.72 752.15 4577.72 702.85C4577.72 654.117 4588.49 611.333 4610.02 574.5C4631.55 537.1 4661.02 508.483 4698.42 488.65C4735.82 468.817 4777.75 458.9 4824.22 458.9C4870.69 458.9 4912.62 468.817 4950.02 488.65C4987.42 508.483 5016.89 537.1 5038.42 574.5C5059.95 611.333 5070.72 654.117 5070.72 702.85C5070.72 751.583 5059.67 794.65 5037.57 832.05C5016.04 868.883 4986.29 897.217 4948.32 917.05C4910.92 936.883 4868.99 946.8 4822.52 946.8ZM4822.52 821C4850.29 821 4873.8 810.8 4893.07 790.4C4912.9 770 4922.82 740.817 4922.82 702.85C4922.82 664.883 4913.19 635.7 4893.92 615.3C4875.22 594.9 4851.99 584.7 4824.22 584.7C4795.89 584.7 4772.37 594.9 4753.67 615.3C4734.97 635.133 4725.62 664.317 4725.62 702.85C4725.62 740.817 4734.69 770 4752.82 790.4C4771.52 810.8 4794.75 821 4822.52 821ZM5293.18 532.85C5307.35 510.75 5326.9 492.9 5351.83 479.3C5376.76 465.7 5405.95 458.9 5439.38 458.9C5478.48 458.9 5513.9 468.817 5545.63 488.65C5577.36 508.483 5602.3 536.817 5620.43 573.65C5639.13 610.483 5648.48 653.267 5648.48 702C5648.48 750.733 5639.13 793.8 5620.43 831.2C5602.3 868.033 5577.36 896.65 5545.63 917.05C5513.9 936.883 5478.48 946.8 5439.38 946.8C5406.51 946.8 5377.33 940 5351.83 926.4C5326.9 912.8 5307.35 895.233 5293.18 873.7V1166.1H5147.83V465.7H5293.18V532.85ZM5500.58 702C5500.58 665.733 5490.38 637.4 5469.98 617C5450.15 596.033 5425.5 585.55 5396.03 585.55C5367.13 585.55 5342.48 596.033 5322.08 617C5302.25 637.967 5292.33 666.583 5292.33 702.85C5292.33 739.117 5302.25 767.733 5322.08 788.7C5342.48 809.667 5367.13 820.15 5396.03 820.15C5424.93 820.15 5449.58 809.667 5469.98 788.7C5490.38 767.167 5500.58 738.267 5500.58 702Z" fill="black"/>
</g>
<defs>
<filter id="filter0_d_3395_8" x="292" y="227" width="616.538" height="935" filterUnits="userSpaceOnUse" color-interpolation-filters="sRGB">
<feFlood flood-opacity="0" result="BackgroundImageFix"/>
<feColorMatrix in="SourceAlpha" type="matrix" values="0 0 0 0 0 0 0 0 0 0 0 0 0 0 0 0 0 0 127 0" result="hardAlpha"/>
<feOffset dy="15"/>
<feGaussianBlur stdDeviation="20"/>
<feColorMatrix type="matrix" values="0 0 0 0 0 0 0 0 0 0 0 0 0 0 0 0 0 0 0.2 0"/>
<feBlend mode="normal" in2="BackgroundImageFix" result="effect1_dropShadow_3395_8"/>
<feBlend mode="normal" in="SourceGraphic" in2="effect1_dropShadow_3395_8" result="shape"/>
</filter>
<linearGradient id="paint0_linear_3395_8" x1="426.685" y1="628.923" x2="742.415" y2="1033.23" gradientUnits="userSpaceOnUse">
<stop stop-color="#0F79FE"/>
<stop offset="1" stop-color="#2C27FE"/>
</linearGradient>
<linearGradient id="paint1_linear_3395_8" x1="406.851" y1="1186.17" x2="589.862" y2="857.413" gradientUnits="userSpaceOnUse">
<stop stop-color="#39ACF0"/>
<stop offset="1" stop-color="#72EFDD"/>
</linearGradient>
<linearGradient id="paint2_linear_3395_8" x1="425.225" y1="995.826" x2="897.273" y2="730.336" gradientUnits="userSpaceOnUse">
<stop stop-color="#39ACF0"/>
<stop offset="1" stop-color="#72EFDD"/>
</linearGradient>
<clipPath id="clip0_3395_8">
<rect width="6160" height="1360" fill="white"/>
</clipPath>
</defs>
</svg>
