<svg width="120" height="48" viewBox="0 0 120 48" fill="none" xmlns="http://www.w3.org/2000/svg">
<path d="M120 6.46345V41.6633C120 47.2476 119.937 47.4986 119.248 47.4986H110.724C110.034 47.4986 109.909 47.2476 109.909 41.6633V6.46345C109.909 0.879154 110.034 0.628174 110.724 0.628174H119.248C119.937 0.628174 120 0.879154 120 6.46345Z" fill="black"/>
<path d="M96.0998 27.0431V25.7255C96.0998 22.5882 94.6582 21.3333 92.1511 21.3333C89.7066 21.3333 88.3903 22.651 88.0143 24.9725C87.8889 25.6627 87.9516 26.2274 87.5755 26.2274H79.1139C78.6125 26.2274 78.6125 26.1019 78.6125 25.6627C78.6125 22.3372 81.7464 15.4353 92.6525 15.4353C100.362 15.4353 105.878 18.5098 105.878 27.0431V39.5921C105.878 42.4783 107.445 46.5568 107.445 47.1215C107.445 47.3724 107.257 47.4979 107.069 47.4979H97.6668C97.228 47.4979 97.1654 47.247 96.852 45.6783L96.6013 44.4862C96.4132 43.545 96.2879 43.2313 95.9118 43.2313C95.4104 43.2313 95.097 44.3607 93.718 45.6783C92.2137 47.0587 90.3961 47.9999 87.2621 47.9999C82.1852 47.9999 77.6096 45.1136 77.6096 38.8391C77.6096 31.8117 83.0627 28.8 91.1482 28.4862C95.3477 28.298 96.0998 28.7372 96.0998 27.0431ZM96.0998 36.1411V34.8862C96.0998 33.6313 95.7864 33.2548 94.7209 33.3176L92.4018 33.4431C89.4559 33.6313 87.7009 35.1372 87.7009 37.9607C87.7009 40.7215 89.2052 42.1019 91.3989 42.1019C93.8434 42.1019 96.0998 39.8431 96.0998 36.1411Z" fill="black"/>
<path d="M60.551 23.6548C60.551 22.4627 60.0496 22.3372 57.7305 22.3372H56.6023C56.1635 22.3372 56.1008 22.0234 56.1008 19.4509V19.0117C56.1008 16.4392 56.1635 16.1882 56.6023 16.1882H57.9185C60.2376 16.1882 60.551 15.9999 60.551 14.8705V10.9804C60.551 3.6392 64.2491 0 71.3944 0C74.215 0 76.158 0.439212 76.4714 0.627448C76.5968 0.752936 76.5968 0.941172 76.5968 3.26273V4.07842C76.5968 6.46272 76.5968 7.02742 76.4087 7.02742C76.2207 7.02742 75.3432 6.46272 73.8389 6.46272C71.8332 6.46272 70.5796 7.46664 70.5796 10.9804V14.8705C70.5796 15.9999 71.0184 16.1882 73.8389 16.1882H76.6594C77.2235 16.1882 77.2235 16.4392 77.2235 19.0117V19.4509C77.2235 22.0234 77.1609 22.3372 76.7221 22.3372H73.8389C71.0184 22.3372 70.5796 22.4627 70.5796 23.6548V41.6626C70.5796 47.2469 70.3916 47.4979 69.8901 47.4979H61.1778C60.6764 47.4979 60.551 47.2469 60.551 41.6626V23.6548Z" fill="black"/>
<path fill-rule="evenodd" clip-rule="evenodd" d="M30.1574 0.740479C30.9676 0.740479 31.6169 1.39923 31.6944 2.20567C32.3853 9.39891 38.1102 15.1234 45.3039 15.8142C46.1104 15.8917 46.7692 16.541 46.7692 17.3511V30.8959C46.7692 31.706 46.1104 32.3553 45.3039 32.4328C38.1102 33.1236 32.3853 38.8481 31.6944 46.0414C31.6169 46.8478 30.9676 47.5065 30.1574 47.5065H16.6118C15.8016 47.5065 15.1523 46.8478 15.0748 46.0414C14.384 38.8481 8.65901 33.1236 1.46528 32.4328C0.658799 32.3553 0 31.706 0 30.8959V17.3511C0 16.541 0.658803 15.8917 1.46529 15.8142C8.65902 15.1234 14.384 9.39891 15.0748 2.20567C15.1523 1.39923 15.8016 0.740479 16.6118 0.740479H30.1574ZM9.39037 24.0839C9.39037 31.865 15.6915 38.1728 23.4644 38.1728C31.2373 38.1728 37.5385 31.865 37.5385 24.0839C37.5385 16.3028 31.2373 9.99498 23.4644 9.99498C15.6915 9.99498 9.39037 16.3028 9.39037 24.0839Z" fill="black"/>
</svg>
